<mxfile host="app.diagrams.net" modified="2020-10-21T02:56:54.907Z" agent="5.0 (Windows NT 10.0; WOW64) AppleWebKit/537.36 (KHTML, like Gecko) Chrome/85.0.4183.121 Safari/537.36" etag="3XI4H9ZWCUNgLdSvwnHv" version="13.8.1" type="github">
  <diagram id="-ek8sE49ay578aNpeJzq" name="Page-1">
    <mxGraphModel dx="934" dy="491" grid="1" gridSize="10" guides="1" tooltips="1" connect="1" arrows="1" fold="1" page="1" pageScale="1" pageWidth="827" pageHeight="1169" math="0" shadow="0">
      <root>
        <mxCell id="0" />
        <mxCell id="1" parent="0" />
        <mxCell id="KtjxWLCBLCT73WLLzoOV-3" style="edgeStyle=orthogonalEdgeStyle;rounded=0;orthogonalLoop=1;jettySize=auto;html=1;exitX=0.5;exitY=1;exitDx=0;exitDy=0;entryX=0.5;entryY=0;entryDx=0;entryDy=0;" edge="1" parent="1" source="KtjxWLCBLCT73WLLzoOV-1" target="KtjxWLCBLCT73WLLzoOV-2">
          <mxGeometry relative="1" as="geometry" />
        </mxCell>
        <mxCell id="KtjxWLCBLCT73WLLzoOV-1" value="SLObjectItf (slEngineObj)" style="rounded=1;whiteSpace=wrap;html=1;" vertex="1" parent="1">
          <mxGeometry x="320" y="90" width="120" height="40" as="geometry" />
        </mxCell>
        <mxCell id="KtjxWLCBLCT73WLLzoOV-7" style="edgeStyle=orthogonalEdgeStyle;rounded=0;orthogonalLoop=1;jettySize=auto;html=1;exitX=0;exitY=0.5;exitDx=0;exitDy=0;entryX=0.5;entryY=0;entryDx=0;entryDy=0;" edge="1" parent="1" source="KtjxWLCBLCT73WLLzoOV-2" target="KtjxWLCBLCT73WLLzoOV-5">
          <mxGeometry relative="1" as="geometry" />
        </mxCell>
        <mxCell id="KtjxWLCBLCT73WLLzoOV-10" style="edgeStyle=orthogonalEdgeStyle;rounded=0;orthogonalLoop=1;jettySize=auto;html=1;exitX=0;exitY=0.5;exitDx=0;exitDy=0;" edge="1" parent="1" source="KtjxWLCBLCT73WLLzoOV-2" target="KtjxWLCBLCT73WLLzoOV-9">
          <mxGeometry relative="1" as="geometry" />
        </mxCell>
        <mxCell id="KtjxWLCBLCT73WLLzoOV-28" style="edgeStyle=orthogonalEdgeStyle;rounded=0;orthogonalLoop=1;jettySize=auto;html=1;exitX=1;exitY=0.5;exitDx=0;exitDy=0;entryX=0.5;entryY=0;entryDx=0;entryDy=0;" edge="1" parent="1" source="KtjxWLCBLCT73WLLzoOV-2" target="KtjxWLCBLCT73WLLzoOV-27">
          <mxGeometry relative="1" as="geometry" />
        </mxCell>
        <mxCell id="KtjxWLCBLCT73WLLzoOV-2" value="SLEngineItf" style="rounded=1;whiteSpace=wrap;html=1;" vertex="1" parent="1">
          <mxGeometry x="320" y="160" width="120" height="40" as="geometry" />
        </mxCell>
        <mxCell id="KtjxWLCBLCT73WLLzoOV-5" value="SLObjectItf (OutputMixObjectItf)" style="rounded=1;whiteSpace=wrap;html=1;" vertex="1" parent="1">
          <mxGeometry x="10" y="220" width="120" height="40" as="geometry" />
        </mxCell>
        <mxCell id="KtjxWLCBLCT73WLLzoOV-13" style="edgeStyle=orthogonalEdgeStyle;rounded=0;orthogonalLoop=1;jettySize=auto;html=1;exitX=0.5;exitY=1;exitDx=0;exitDy=0;entryX=0.5;entryY=0;entryDx=0;entryDy=0;" edge="1" parent="1" source="KtjxWLCBLCT73WLLzoOV-9" target="KtjxWLCBLCT73WLLzoOV-12">
          <mxGeometry relative="1" as="geometry" />
        </mxCell>
        <mxCell id="KtjxWLCBLCT73WLLzoOV-15" style="edgeStyle=orthogonalEdgeStyle;rounded=0;orthogonalLoop=1;jettySize=auto;html=1;exitX=0.5;exitY=1;exitDx=0;exitDy=0;entryX=0.5;entryY=0;entryDx=0;entryDy=0;" edge="1" parent="1" source="KtjxWLCBLCT73WLLzoOV-9" target="KtjxWLCBLCT73WLLzoOV-14">
          <mxGeometry relative="1" as="geometry" />
        </mxCell>
        <mxCell id="KtjxWLCBLCT73WLLzoOV-20" style="edgeStyle=orthogonalEdgeStyle;rounded=0;orthogonalLoop=1;jettySize=auto;html=1;exitX=0;exitY=0.5;exitDx=0;exitDy=0;entryX=1;entryY=0.5;entryDx=0;entryDy=0;" edge="1" parent="1" source="KtjxWLCBLCT73WLLzoOV-9" target="KtjxWLCBLCT73WLLzoOV-5">
          <mxGeometry relative="1" as="geometry" />
        </mxCell>
        <mxCell id="KtjxWLCBLCT73WLLzoOV-49" style="edgeStyle=orthogonalEdgeStyle;rounded=0;orthogonalLoop=1;jettySize=auto;html=1;exitX=1;exitY=0.5;exitDx=0;exitDy=0;entryX=0;entryY=0.5;entryDx=0;entryDy=0;" edge="1" parent="1" source="KtjxWLCBLCT73WLLzoOV-9" target="KtjxWLCBLCT73WLLzoOV-48">
          <mxGeometry relative="1" as="geometry" />
        </mxCell>
        <mxCell id="KtjxWLCBLCT73WLLzoOV-9" value="SLObjectItf (PlayerObjectItf)" style="rounded=1;whiteSpace=wrap;html=1;" vertex="1" parent="1">
          <mxGeometry x="160" y="220" width="120" height="40" as="geometry" />
        </mxCell>
        <mxCell id="KtjxWLCBLCT73WLLzoOV-21" style="edgeStyle=orthogonalEdgeStyle;rounded=0;orthogonalLoop=1;jettySize=auto;html=1;exitX=0.5;exitY=1;exitDx=0;exitDy=0;entryX=0.5;entryY=1;entryDx=0;entryDy=0;" edge="1" parent="1" source="KtjxWLCBLCT73WLLzoOV-12" target="KtjxWLCBLCT73WLLzoOV-14">
          <mxGeometry relative="1" as="geometry" />
        </mxCell>
        <mxCell id="KtjxWLCBLCT73WLLzoOV-22" style="edgeStyle=orthogonalEdgeStyle;rounded=0;orthogonalLoop=1;jettySize=auto;html=1;exitX=0.5;exitY=1;exitDx=0;exitDy=0;entryX=0.5;entryY=1;entryDx=0;entryDy=0;" edge="1" parent="1" source="KtjxWLCBLCT73WLLzoOV-12" target="KtjxWLCBLCT73WLLzoOV-5">
          <mxGeometry relative="1" as="geometry" />
        </mxCell>
        <mxCell id="KtjxWLCBLCT73WLLzoOV-12" value="SLPlayItf" style="rounded=1;whiteSpace=wrap;html=1;" vertex="1" parent="1">
          <mxGeometry x="290" y="350" width="90" height="40" as="geometry" />
        </mxCell>
        <mxCell id="KtjxWLCBLCT73WLLzoOV-19" style="edgeStyle=orthogonalEdgeStyle;rounded=0;orthogonalLoop=1;jettySize=auto;html=1;exitX=0.25;exitY=0;exitDx=0;exitDy=0;entryX=0.187;entryY=1.03;entryDx=0;entryDy=0;entryPerimeter=0;" edge="1" parent="1" source="KtjxWLCBLCT73WLLzoOV-14" target="KtjxWLCBLCT73WLLzoOV-9">
          <mxGeometry relative="1" as="geometry" />
        </mxCell>
        <mxCell id="KtjxWLCBLCT73WLLzoOV-26" style="edgeStyle=orthogonalEdgeStyle;rounded=0;orthogonalLoop=1;jettySize=auto;html=1;exitX=0.75;exitY=1;exitDx=0;exitDy=0;entryX=0.5;entryY=0;entryDx=0;entryDy=0;" edge="1" parent="1" source="KtjxWLCBLCT73WLLzoOV-14" target="KtjxWLCBLCT73WLLzoOV-24">
          <mxGeometry relative="1" as="geometry" />
        </mxCell>
        <mxCell id="KtjxWLCBLCT73WLLzoOV-14" value="SLAndroidSimpleBufferQueueItf" style="rounded=1;whiteSpace=wrap;html=1;" vertex="1" parent="1">
          <mxGeometry x="100" y="320" width="186" height="40" as="geometry" />
        </mxCell>
        <mxCell id="KtjxWLCBLCT73WLLzoOV-24" value="slAndroidSimpleBufferQueueCallback" style="rounded=1;whiteSpace=wrap;html=1;" vertex="1" parent="1">
          <mxGeometry x="130" y="440" width="220" height="40" as="geometry" />
        </mxCell>
        <mxCell id="KtjxWLCBLCT73WLLzoOV-32" style="edgeStyle=orthogonalEdgeStyle;rounded=0;orthogonalLoop=1;jettySize=auto;html=1;exitX=0.5;exitY=1;exitDx=0;exitDy=0;entryX=0.5;entryY=0;entryDx=0;entryDy=0;" edge="1" parent="1" source="KtjxWLCBLCT73WLLzoOV-27" target="KtjxWLCBLCT73WLLzoOV-31">
          <mxGeometry relative="1" as="geometry" />
        </mxCell>
        <mxCell id="KtjxWLCBLCT73WLLzoOV-35" style="edgeStyle=orthogonalEdgeStyle;rounded=0;orthogonalLoop=1;jettySize=auto;html=1;exitX=0.5;exitY=1;exitDx=0;exitDy=0;" edge="1" parent="1" source="KtjxWLCBLCT73WLLzoOV-27" target="KtjxWLCBLCT73WLLzoOV-33">
          <mxGeometry relative="1" as="geometry" />
        </mxCell>
        <mxCell id="KtjxWLCBLCT73WLLzoOV-37" style="edgeStyle=orthogonalEdgeStyle;rounded=0;orthogonalLoop=1;jettySize=auto;html=1;exitX=0;exitY=0.5;exitDx=0;exitDy=0;entryX=1;entryY=0.5;entryDx=0;entryDy=0;" edge="1" parent="1" source="KtjxWLCBLCT73WLLzoOV-27" target="KtjxWLCBLCT73WLLzoOV-29">
          <mxGeometry relative="1" as="geometry" />
        </mxCell>
        <mxCell id="KtjxWLCBLCT73WLLzoOV-39" style="edgeStyle=orthogonalEdgeStyle;rounded=0;orthogonalLoop=1;jettySize=auto;html=1;exitX=1;exitY=0.5;exitDx=0;exitDy=0;entryX=0;entryY=0.5;entryDx=0;entryDy=0;" edge="1" parent="1" source="KtjxWLCBLCT73WLLzoOV-27" target="KtjxWLCBLCT73WLLzoOV-38">
          <mxGeometry relative="1" as="geometry" />
        </mxCell>
        <mxCell id="KtjxWLCBLCT73WLLzoOV-27" value="SLObjectItf (RecObjectItf)" style="rounded=1;whiteSpace=wrap;html=1;" vertex="1" parent="1">
          <mxGeometry x="510" y="220" width="120" height="40" as="geometry" />
        </mxCell>
        <mxCell id="KtjxWLCBLCT73WLLzoOV-29" value="SLAndroidConfigurationItf" style="rounded=1;whiteSpace=wrap;html=1;" vertex="1" parent="1">
          <mxGeometry x="334" y="220" width="160" height="40" as="geometry" />
        </mxCell>
        <mxCell id="KtjxWLCBLCT73WLLzoOV-43" style="edgeStyle=orthogonalEdgeStyle;rounded=0;orthogonalLoop=1;jettySize=auto;html=1;exitX=1;exitY=0.5;exitDx=0;exitDy=0;" edge="1" parent="1" source="KtjxWLCBLCT73WLLzoOV-31" target="KtjxWLCBLCT73WLLzoOV-33">
          <mxGeometry relative="1" as="geometry" />
        </mxCell>
        <mxCell id="KtjxWLCBLCT73WLLzoOV-44" style="edgeStyle=orthogonalEdgeStyle;rounded=0;orthogonalLoop=1;jettySize=auto;html=1;exitX=1;exitY=0.5;exitDx=0;exitDy=0;entryX=0.75;entryY=1;entryDx=0;entryDy=0;" edge="1" parent="1" source="KtjxWLCBLCT73WLLzoOV-31" target="KtjxWLCBLCT73WLLzoOV-38">
          <mxGeometry relative="1" as="geometry" />
        </mxCell>
        <mxCell id="KtjxWLCBLCT73WLLzoOV-31" value="SLRecordItf" style="rounded=1;whiteSpace=wrap;html=1;" vertex="1" parent="1">
          <mxGeometry x="510" y="370" width="120" height="40" as="geometry" />
        </mxCell>
        <mxCell id="KtjxWLCBLCT73WLLzoOV-46" style="edgeStyle=orthogonalEdgeStyle;rounded=0;orthogonalLoop=1;jettySize=auto;html=1;exitX=0.75;exitY=1;exitDx=0;exitDy=0;entryX=0.5;entryY=0;entryDx=0;entryDy=0;" edge="1" parent="1" source="KtjxWLCBLCT73WLLzoOV-33" target="KtjxWLCBLCT73WLLzoOV-45">
          <mxGeometry relative="1" as="geometry" />
        </mxCell>
        <mxCell id="KtjxWLCBLCT73WLLzoOV-33" value="SLAndroidSimpleBufferQueueItf" style="rounded=1;whiteSpace=wrap;html=1;" vertex="1" parent="1">
          <mxGeometry x="580" y="300" width="200" height="40" as="geometry" />
        </mxCell>
        <mxCell id="KtjxWLCBLCT73WLLzoOV-41" style="edgeStyle=orthogonalEdgeStyle;rounded=0;orthogonalLoop=1;jettySize=auto;html=1;exitX=0.5;exitY=1;exitDx=0;exitDy=0;entryX=1;entryY=0.5;entryDx=0;entryDy=0;" edge="1" parent="1" source="KtjxWLCBLCT73WLLzoOV-38" target="KtjxWLCBLCT73WLLzoOV-33">
          <mxGeometry relative="1" as="geometry" />
        </mxCell>
        <mxCell id="KtjxWLCBLCT73WLLzoOV-38" value="IODEVICE_AUDIOINPUT" style="rounded=1;whiteSpace=wrap;html=1;" vertex="1" parent="1">
          <mxGeometry x="730" y="220" width="150" height="40" as="geometry" />
        </mxCell>
        <mxCell id="KtjxWLCBLCT73WLLzoOV-45" value="slAndroidSimpleBufferQueueCallback" style="rounded=1;whiteSpace=wrap;html=1;" vertex="1" parent="1">
          <mxGeometry x="620" y="440" width="220" height="40" as="geometry" />
        </mxCell>
        <mxCell id="KtjxWLCBLCT73WLLzoOV-48" value="SLVolumeItf" style="rounded=1;whiteSpace=wrap;html=1;" vertex="1" parent="1">
          <mxGeometry x="350" y="270" width="90" height="40" as="geometry" />
        </mxCell>
      </root>
    </mxGraphModel>
  </diagram>
</mxfile>
